<mxfile host="app.diagrams.net" modified="2021-05-24T01:54:32.827Z" agent="5.0 (X11; Linux x86_64) AppleWebKit/537.36 (KHTML, like Gecko) Chrome/90.0.4430.93 Safari/537.36" etag="Mq4NMaWp0_ZpdxkG-vfJ" version="14.6.13" type="github">
  <diagram id="i0lwWiRJ5XKTnTXkG13k" name="Page-1">
    <mxGraphModel dx="3871" dy="2303" grid="1" gridSize="10" guides="1" tooltips="1" connect="1" arrows="1" fold="1" page="1" pageScale="1" pageWidth="20000" pageHeight="20000" background="#FFFFFF" math="0" shadow="0">
      <root>
        <mxCell id="0" />
        <mxCell id="1" parent="0" />
        <mxCell id="Fh_mSE7WUpqC5ql87PSx-1" value="/play_*" style="ellipse;whiteSpace=wrap;html=1;fillColor=#f8cecc;strokeColor=#b85450;" parent="1" vertex="1">
          <mxGeometry x="2310" y="2820" width="110" height="30" as="geometry" />
        </mxCell>
        <mxCell id="Fh_mSE7WUpqC5ql87PSx-15" style="edgeStyle=orthogonalEdgeStyle;orthogonalLoop=1;jettySize=auto;html=1;curved=1;" parent="1" source="Fh_mSE7WUpqC5ql87PSx-2" target="Fh_mSE7WUpqC5ql87PSx-14" edge="1">
          <mxGeometry relative="1" as="geometry" />
        </mxCell>
        <mxCell id="ljQ7hY6K9yDuPbr-B0nX-4" style="edgeStyle=orthogonalEdgeStyle;curved=1;orthogonalLoop=1;jettySize=auto;html=1;exitX=0;exitY=0;exitDx=0;exitDy=0;" edge="1" parent="1" source="Fh_mSE7WUpqC5ql87PSx-2" target="Fh_mSE7WUpqC5ql87PSx-57">
          <mxGeometry relative="1" as="geometry">
            <Array as="points">
              <mxPoint x="2450" y="2360" />
            </Array>
          </mxGeometry>
        </mxCell>
        <mxCell id="ljQ7hY6K9yDuPbr-B0nX-40" style="edgeStyle=orthogonalEdgeStyle;curved=1;orthogonalLoop=1;jettySize=auto;html=1;exitX=1;exitY=0.75;exitDx=0;exitDy=0;entryX=0;entryY=0;entryDx=0;entryDy=0;" edge="1" parent="1" source="Fh_mSE7WUpqC5ql87PSx-2" target="ljQ7hY6K9yDuPbr-B0nX-29">
          <mxGeometry relative="1" as="geometry">
            <Array as="points">
              <mxPoint x="2550" y="2980" />
              <mxPoint x="2921.9999999999995" y="2980" />
            </Array>
          </mxGeometry>
        </mxCell>
        <mxCell id="ljQ7hY6K9yDuPbr-B0nX-83" style="edgeStyle=orthogonalEdgeStyle;curved=1;orthogonalLoop=1;jettySize=auto;html=1;exitX=0;exitY=0.25;exitDx=0;exitDy=0;entryX=0;entryY=0;entryDx=0;entryDy=0;" edge="1" parent="1" source="Fh_mSE7WUpqC5ql87PSx-2" target="Fh_mSE7WUpqC5ql87PSx-66">
          <mxGeometry relative="1" as="geometry">
            <Array as="points">
              <mxPoint x="2050" y="2788" />
              <mxPoint x="2050" y="3460" />
              <mxPoint x="3115.9999999999995" y="3460" />
            </Array>
          </mxGeometry>
        </mxCell>
        <mxCell id="Fh_mSE7WUpqC5ql87PSx-2" value="/points_raw" style="rounded=0;whiteSpace=wrap;html=1;" parent="1" vertex="1">
          <mxGeometry x="2450" y="2780" width="100" height="30" as="geometry" />
        </mxCell>
        <mxCell id="Fh_mSE7WUpqC5ql87PSx-6" value="" style="endArrow=classic;html=1;entryX=0;entryY=1;entryDx=0;entryDy=0;exitX=0.655;exitY=0.033;exitDx=0;exitDy=0;exitPerimeter=0;" parent="1" source="Fh_mSE7WUpqC5ql87PSx-1" target="Fh_mSE7WUpqC5ql87PSx-2" edge="1">
          <mxGeometry width="50" height="50" relative="1" as="geometry">
            <mxPoint x="2380" y="2830" as="sourcePoint" />
            <mxPoint x="2430" y="2780" as="targetPoint" />
          </mxGeometry>
        </mxCell>
        <mxCell id="Fh_mSE7WUpqC5ql87PSx-17" style="edgeStyle=orthogonalEdgeStyle;curved=1;orthogonalLoop=1;jettySize=auto;html=1;strokeColor=#000000;" parent="1" source="Fh_mSE7WUpqC5ql87PSx-7" target="Fh_mSE7WUpqC5ql87PSx-16" edge="1">
          <mxGeometry relative="1" as="geometry" />
        </mxCell>
        <mxCell id="Fh_mSE7WUpqC5ql87PSx-7" value="/nmea_sentence" style="rounded=0;whiteSpace=wrap;html=1;" parent="1" vertex="1">
          <mxGeometry x="2450" y="2870" width="100" height="30" as="geometry" />
        </mxCell>
        <mxCell id="Fh_mSE7WUpqC5ql87PSx-13" value="" style="endArrow=classic;html=1;exitX=0.682;exitY=1;exitDx=0;exitDy=0;exitPerimeter=0;" parent="1" source="Fh_mSE7WUpqC5ql87PSx-1" target="Fh_mSE7WUpqC5ql87PSx-7" edge="1">
          <mxGeometry width="50" height="50" relative="1" as="geometry">
            <mxPoint x="2390" y="2900" as="sourcePoint" />
            <mxPoint x="2440" y="2850" as="targetPoint" />
          </mxGeometry>
        </mxCell>
        <mxCell id="Fh_mSE7WUpqC5ql87PSx-20" style="edgeStyle=orthogonalEdgeStyle;curved=1;orthogonalLoop=1;jettySize=auto;html=1;entryX=0;entryY=0.5;entryDx=0;entryDy=0;strokeColor=#000000;" parent="1" source="Fh_mSE7WUpqC5ql87PSx-14" target="Fh_mSE7WUpqC5ql87PSx-19" edge="1">
          <mxGeometry relative="1" as="geometry" />
        </mxCell>
        <mxCell id="Fh_mSE7WUpqC5ql87PSx-14" value="/voxel_gird_filter" style="ellipse;whiteSpace=wrap;html=1;" parent="1" vertex="1">
          <mxGeometry x="2610" y="2780" width="110" height="30" as="geometry" />
        </mxCell>
        <mxCell id="Fh_mSE7WUpqC5ql87PSx-22" style="edgeStyle=orthogonalEdgeStyle;curved=1;orthogonalLoop=1;jettySize=auto;html=1;strokeColor=#000000;" parent="1" source="Fh_mSE7WUpqC5ql87PSx-16" target="Fh_mSE7WUpqC5ql87PSx-21" edge="1">
          <mxGeometry relative="1" as="geometry" />
        </mxCell>
        <mxCell id="ljQ7hY6K9yDuPbr-B0nX-5" style="edgeStyle=orthogonalEdgeStyle;curved=1;orthogonalLoop=1;jettySize=auto;html=1;exitX=0.5;exitY=1;exitDx=0;exitDy=0;" edge="1" parent="1" source="Fh_mSE7WUpqC5ql87PSx-16" target="Fh_mSE7WUpqC5ql87PSx-51">
          <mxGeometry relative="1" as="geometry" />
        </mxCell>
        <mxCell id="Fh_mSE7WUpqC5ql87PSx-16" value="/nmea2tfpose" style="ellipse;whiteSpace=wrap;html=1;" parent="1" vertex="1">
          <mxGeometry x="2610" y="2870" width="110" height="30" as="geometry" />
        </mxCell>
        <mxCell id="Fh_mSE7WUpqC5ql87PSx-27" style="edgeStyle=orthogonalEdgeStyle;curved=1;orthogonalLoop=1;jettySize=auto;html=1;entryX=0;entryY=0;entryDx=0;entryDy=0;strokeColor=#000000;" parent="1" source="Fh_mSE7WUpqC5ql87PSx-19" target="Fh_mSE7WUpqC5ql87PSx-25" edge="1">
          <mxGeometry relative="1" as="geometry" />
        </mxCell>
        <mxCell id="Fh_mSE7WUpqC5ql87PSx-19" value="/filtered_points" style="rounded=0;whiteSpace=wrap;html=1;" parent="1" vertex="1">
          <mxGeometry x="2769.9999999999995" y="2780" width="100" height="30" as="geometry" />
        </mxCell>
        <mxCell id="Fh_mSE7WUpqC5ql87PSx-28" style="edgeStyle=orthogonalEdgeStyle;curved=1;orthogonalLoop=1;jettySize=auto;html=1;entryX=0;entryY=1;entryDx=0;entryDy=0;strokeColor=#000000;" parent="1" source="Fh_mSE7WUpqC5ql87PSx-21" target="Fh_mSE7WUpqC5ql87PSx-25" edge="1">
          <mxGeometry relative="1" as="geometry" />
        </mxCell>
        <mxCell id="Fh_mSE7WUpqC5ql87PSx-21" value="/gnss_pose" style="rounded=0;whiteSpace=wrap;html=1;" parent="1" vertex="1">
          <mxGeometry x="2769.9999999999995" y="2870" width="100" height="30" as="geometry" />
        </mxCell>
        <mxCell id="Fh_mSE7WUpqC5ql87PSx-29" style="edgeStyle=orthogonalEdgeStyle;curved=1;orthogonalLoop=1;jettySize=auto;html=1;entryX=0.391;entryY=1.033;entryDx=0;entryDy=0;entryPerimeter=0;strokeColor=#000000;" parent="1" source="Fh_mSE7WUpqC5ql87PSx-23" target="Fh_mSE7WUpqC5ql87PSx-25" edge="1">
          <mxGeometry relative="1" as="geometry" />
        </mxCell>
        <mxCell id="Fh_mSE7WUpqC5ql87PSx-23" value="/initialpose" style="rounded=0;whiteSpace=wrap;html=1;" parent="1" vertex="1">
          <mxGeometry x="2769.9999999999995" y="2940" width="100" height="30" as="geometry" />
        </mxCell>
        <mxCell id="Fh_mSE7WUpqC5ql87PSx-26" style="edgeStyle=orthogonalEdgeStyle;curved=1;orthogonalLoop=1;jettySize=auto;html=1;entryX=0.364;entryY=0;entryDx=0;entryDy=0;entryPerimeter=0;strokeColor=#000000;" parent="1" source="Fh_mSE7WUpqC5ql87PSx-24" target="Fh_mSE7WUpqC5ql87PSx-25" edge="1">
          <mxGeometry relative="1" as="geometry" />
        </mxCell>
        <mxCell id="Fh_mSE7WUpqC5ql87PSx-24" value="/points_map" style="rounded=0;whiteSpace=wrap;html=1;" parent="1" vertex="1">
          <mxGeometry x="2769.9999999999995" y="2710" width="100" height="30" as="geometry" />
        </mxCell>
        <mxCell id="Fh_mSE7WUpqC5ql87PSx-40" style="edgeStyle=orthogonalEdgeStyle;orthogonalLoop=1;jettySize=auto;html=1;exitX=0.5;exitY=0;exitDx=0;exitDy=0;entryX=0;entryY=0.5;entryDx=0;entryDy=0;strokeColor=#000000;curved=1;" parent="1" source="Fh_mSE7WUpqC5ql87PSx-25" target="Fh_mSE7WUpqC5ql87PSx-38" edge="1">
          <mxGeometry relative="1" as="geometry" />
        </mxCell>
        <mxCell id="Fh_mSE7WUpqC5ql87PSx-25" value="/ndt_matching" style="ellipse;whiteSpace=wrap;html=1;fillColor=#fff2cc;strokeColor=#d6b656;" parent="1" vertex="1">
          <mxGeometry x="2959.9999999999995" y="2820" width="110" height="30" as="geometry" />
        </mxCell>
        <mxCell id="Fh_mSE7WUpqC5ql87PSx-31" style="edgeStyle=orthogonalEdgeStyle;curved=1;orthogonalLoop=1;jettySize=auto;html=1;strokeColor=#000000;exitX=0.5;exitY=1;exitDx=0;exitDy=0;entryX=0;entryY=0.5;entryDx=0;entryDy=0;" parent="1" source="Fh_mSE7WUpqC5ql87PSx-30" target="Fh_mSE7WUpqC5ql87PSx-24" edge="1">
          <mxGeometry relative="1" as="geometry" />
        </mxCell>
        <mxCell id="Fh_mSE7WUpqC5ql87PSx-49" style="edgeStyle=orthogonalEdgeStyle;curved=1;orthogonalLoop=1;jettySize=auto;html=1;exitX=0.5;exitY=0;exitDx=0;exitDy=0;entryX=0;entryY=0.5;entryDx=0;entryDy=0;strokeColor=#000000;" parent="1" source="Fh_mSE7WUpqC5ql87PSx-30" target="Fh_mSE7WUpqC5ql87PSx-47" edge="1">
          <mxGeometry relative="1" as="geometry" />
        </mxCell>
        <mxCell id="Fh_mSE7WUpqC5ql87PSx-30" value="/points_map_loader" style="ellipse;whiteSpace=wrap;html=1;fillColor=#f8cecc;strokeColor=#b85450;" parent="1" vertex="1">
          <mxGeometry x="2430" y="2500" width="200" height="40" as="geometry" />
        </mxCell>
        <mxCell id="Fh_mSE7WUpqC5ql87PSx-33" value="" style="swimlane;startSize=0;strokeColor=#000000;" parent="1" vertex="1">
          <mxGeometry x="2799.9999999999995" y="2450" width="170" height="200" as="geometry">
            <mxRectangle x="530" y="20" width="50" height="40" as="alternateBounds" />
          </mxGeometry>
        </mxCell>
        <mxCell id="Fh_mSE7WUpqC5ql87PSx-34" value="/config" style="text;html=1;align=center;verticalAlign=middle;resizable=0;points=[];autosize=1;strokeColor=none;" parent="Fh_mSE7WUpqC5ql87PSx-33" vertex="1">
          <mxGeometry x="60" width="50" height="20" as="geometry" />
        </mxCell>
        <mxCell id="Fh_mSE7WUpqC5ql87PSx-35" value="/config/voxel_gird_filter" style="rounded=0;whiteSpace=wrap;html=1;" parent="Fh_mSE7WUpqC5ql87PSx-33" vertex="1">
          <mxGeometry x="15" y="30" width="140" height="20" as="geometry" />
        </mxCell>
        <mxCell id="Fh_mSE7WUpqC5ql87PSx-44" value="/config/ndt" style="rounded=0;whiteSpace=wrap;html=1;" parent="Fh_mSE7WUpqC5ql87PSx-33" vertex="1">
          <mxGeometry x="15" y="60" width="140" height="20" as="geometry" />
        </mxCell>
        <mxCell id="Fh_mSE7WUpqC5ql87PSx-63" value="/config/ndt_mapping" style="rounded=0;whiteSpace=wrap;html=1;" parent="Fh_mSE7WUpqC5ql87PSx-33" vertex="1">
          <mxGeometry x="15" y="90" width="140" height="20" as="geometry" />
        </mxCell>
        <mxCell id="ljQ7hY6K9yDuPbr-B0nX-46" value="/config/car_dpm" style="rounded=0;whiteSpace=wrap;html=1;" vertex="1" parent="Fh_mSE7WUpqC5ql87PSx-33">
          <mxGeometry x="15" y="120" width="140" height="20" as="geometry" />
        </mxCell>
        <mxCell id="Fh_mSE7WUpqC5ql87PSx-36" style="edgeStyle=orthogonalEdgeStyle;orthogonalLoop=1;jettySize=auto;html=1;strokeColor=#000000;curved=1;" parent="1" source="Fh_mSE7WUpqC5ql87PSx-35" target="Fh_mSE7WUpqC5ql87PSx-14" edge="1">
          <mxGeometry relative="1" as="geometry">
            <Array as="points">
              <mxPoint x="2680" y="2490" />
            </Array>
          </mxGeometry>
        </mxCell>
        <mxCell id="Fh_mSE7WUpqC5ql87PSx-42" style="edgeStyle=orthogonalEdgeStyle;curved=1;orthogonalLoop=1;jettySize=auto;html=1;entryX=0;entryY=1;entryDx=0;entryDy=0;strokeColor=#000000;" parent="1" source="Fh_mSE7WUpqC5ql87PSx-38" target="Fh_mSE7WUpqC5ql87PSx-41" edge="1">
          <mxGeometry relative="1" as="geometry">
            <Array as="points">
              <mxPoint x="3323.9999999999995" y="2775" />
            </Array>
          </mxGeometry>
        </mxCell>
        <mxCell id="Fh_mSE7WUpqC5ql87PSx-38" value="/ndt_stat" style="rounded=0;whiteSpace=wrap;html=1;" parent="1" vertex="1">
          <mxGeometry x="3119.9999999999995" y="2760" width="100" height="30" as="geometry" />
        </mxCell>
        <mxCell id="Fh_mSE7WUpqC5ql87PSx-43" style="edgeStyle=orthogonalEdgeStyle;curved=1;orthogonalLoop=1;jettySize=auto;html=1;entryX=1;entryY=0.75;entryDx=0;entryDy=0;strokeColor=#000000;" parent="1" source="Fh_mSE7WUpqC5ql87PSx-41" target="Fh_mSE7WUpqC5ql87PSx-35" edge="1">
          <mxGeometry relative="1" as="geometry">
            <Array as="points">
              <mxPoint x="3329.9999999999995" y="2495" />
            </Array>
          </mxGeometry>
        </mxCell>
        <mxCell id="Fh_mSE7WUpqC5ql87PSx-46" style="edgeStyle=orthogonalEdgeStyle;curved=1;orthogonalLoop=1;jettySize=auto;html=1;entryX=1;entryY=0.75;entryDx=0;entryDy=0;strokeColor=#000000;" parent="1" source="Fh_mSE7WUpqC5ql87PSx-41" target="Fh_mSE7WUpqC5ql87PSx-44" edge="1">
          <mxGeometry relative="1" as="geometry" />
        </mxCell>
        <mxCell id="Fh_mSE7WUpqC5ql87PSx-41" value="/runtime_manager_*" style="ellipse;whiteSpace=wrap;html=1;fillColor=#d5e8d4;strokeColor=#82b366;" parent="1" vertex="1">
          <mxGeometry x="3289.9999999999995" y="2640" width="230" height="50" as="geometry" />
        </mxCell>
        <mxCell id="Fh_mSE7WUpqC5ql87PSx-50" style="edgeStyle=orthogonalEdgeStyle;curved=1;orthogonalLoop=1;jettySize=auto;html=1;exitX=1;exitY=0.5;exitDx=0;exitDy=0;entryX=0.5;entryY=0;entryDx=0;entryDy=0;strokeColor=#000000;" parent="1" source="Fh_mSE7WUpqC5ql87PSx-47" target="Fh_mSE7WUpqC5ql87PSx-41" edge="1">
          <mxGeometry relative="1" as="geometry" />
        </mxCell>
        <mxCell id="Fh_mSE7WUpqC5ql87PSx-47" value="/pmap_stat" style="rounded=0;whiteSpace=wrap;html=1;" parent="1" vertex="1">
          <mxGeometry x="2834.9999999999995" y="2320" width="100" height="30" as="geometry" />
        </mxCell>
        <mxCell id="ljQ7hY6K9yDuPbr-B0nX-6" style="edgeStyle=orthogonalEdgeStyle;curved=1;orthogonalLoop=1;jettySize=auto;html=1;exitX=0;exitY=0.5;exitDx=0;exitDy=0;" edge="1" parent="1" source="Fh_mSE7WUpqC5ql87PSx-51" target="Fh_mSE7WUpqC5ql87PSx-66">
          <mxGeometry relative="1" as="geometry">
            <mxPoint x="3099.9999999999995" y="3550" as="targetPoint" />
            <Array as="points">
              <mxPoint x="1920" y="2455" />
              <mxPoint x="1920" y="3520" />
              <mxPoint x="3092.9999999999995" y="3520" />
            </Array>
          </mxGeometry>
        </mxCell>
        <mxCell id="ljQ7hY6K9yDuPbr-B0nX-80" style="edgeStyle=orthogonalEdgeStyle;curved=1;orthogonalLoop=1;jettySize=auto;html=1;exitX=0.25;exitY=0;exitDx=0;exitDy=0;entryX=0.5;entryY=0;entryDx=0;entryDy=0;" edge="1" parent="1" source="Fh_mSE7WUpqC5ql87PSx-51" target="ljQ7hY6K9yDuPbr-B0nX-68">
          <mxGeometry relative="1" as="geometry">
            <Array as="points">
              <mxPoint x="1958" y="2210" />
              <mxPoint x="4425" y="2210" />
            </Array>
          </mxGeometry>
        </mxCell>
        <mxCell id="Fh_mSE7WUpqC5ql87PSx-51" value="/tf" style="rounded=0;whiteSpace=wrap;html=1;" parent="1" vertex="1">
          <mxGeometry x="1940" y="2430" width="70" height="50" as="geometry" />
        </mxCell>
        <mxCell id="ljQ7hY6K9yDuPbr-B0nX-10" style="edgeStyle=orthogonalEdgeStyle;curved=1;orthogonalLoop=1;jettySize=auto;html=1;entryX=1;entryY=0.25;entryDx=0;entryDy=0;" edge="1" parent="1" source="Fh_mSE7WUpqC5ql87PSx-52" target="Fh_mSE7WUpqC5ql87PSx-51">
          <mxGeometry relative="1" as="geometry" />
        </mxCell>
        <mxCell id="Fh_mSE7WUpqC5ql87PSx-52" value="/base_link_to_localizer" style="ellipse;whiteSpace=wrap;html=1;" parent="1" vertex="1">
          <mxGeometry x="2100" y="2400" width="150" height="40" as="geometry" />
        </mxCell>
        <mxCell id="ljQ7hY6K9yDuPbr-B0nX-9" style="edgeStyle=orthogonalEdgeStyle;curved=1;orthogonalLoop=1;jettySize=auto;html=1;entryX=1;entryY=0.75;entryDx=0;entryDy=0;" edge="1" parent="1" source="Fh_mSE7WUpqC5ql87PSx-54" target="Fh_mSE7WUpqC5ql87PSx-51">
          <mxGeometry relative="1" as="geometry" />
        </mxCell>
        <mxCell id="Fh_mSE7WUpqC5ql87PSx-54" value="/world_to_map" style="ellipse;whiteSpace=wrap;html=1;" parent="1" vertex="1">
          <mxGeometry x="2100" y="2470" width="150" height="40" as="geometry" />
        </mxCell>
        <mxCell id="ljQ7hY6K9yDuPbr-B0nX-8" style="edgeStyle=orthogonalEdgeStyle;curved=1;orthogonalLoop=1;jettySize=auto;html=1;entryX=0.9;entryY=1.06;entryDx=0;entryDy=0;entryPerimeter=0;" edge="1" parent="1" source="Fh_mSE7WUpqC5ql87PSx-55" target="Fh_mSE7WUpqC5ql87PSx-51">
          <mxGeometry relative="1" as="geometry" />
        </mxCell>
        <mxCell id="Fh_mSE7WUpqC5ql87PSx-55" value="/map_to_mobility" style="ellipse;whiteSpace=wrap;html=1;" parent="1" vertex="1">
          <mxGeometry x="2100" y="2550" width="150" height="40" as="geometry" />
        </mxCell>
        <mxCell id="ljQ7hY6K9yDuPbr-B0nX-7" style="edgeStyle=orthogonalEdgeStyle;curved=1;orthogonalLoop=1;jettySize=auto;html=1;entryX=0.914;entryY=0.02;entryDx=0;entryDy=0;entryPerimeter=0;" edge="1" parent="1" source="Fh_mSE7WUpqC5ql87PSx-57" target="Fh_mSE7WUpqC5ql87PSx-51">
          <mxGeometry relative="1" as="geometry" />
        </mxCell>
        <mxCell id="Fh_mSE7WUpqC5ql87PSx-57" value="/ndt_mapping" style="ellipse;whiteSpace=wrap;html=1;" parent="1" vertex="1">
          <mxGeometry x="2100" y="2330" width="150" height="40" as="geometry" />
        </mxCell>
        <mxCell id="ljQ7hY6K9yDuPbr-B0nX-3" style="edgeStyle=orthogonalEdgeStyle;orthogonalLoop=1;jettySize=auto;html=1;exitX=0;exitY=0.25;exitDx=0;exitDy=0;entryX=1;entryY=0.5;entryDx=0;entryDy=0;curved=1;" edge="1" parent="1" source="Fh_mSE7WUpqC5ql87PSx-63" target="Fh_mSE7WUpqC5ql87PSx-57">
          <mxGeometry relative="1" as="geometry">
            <Array as="points">
              <mxPoint x="2814.9999999999995" y="2510" />
              <mxPoint x="2548" y="2510" />
              <mxPoint x="2548" y="2360" />
            </Array>
          </mxGeometry>
        </mxCell>
        <mxCell id="ljQ7hY6K9yDuPbr-B0nX-15" style="edgeStyle=orthogonalEdgeStyle;curved=1;orthogonalLoop=1;jettySize=auto;html=1;entryX=0;entryY=0.75;entryDx=0;entryDy=0;exitX=0.75;exitY=1;exitDx=0;exitDy=0;" edge="1" parent="1" source="ljQ7hY6K9yDuPbr-B0nX-11" target="ljQ7hY6K9yDuPbr-B0nX-12">
          <mxGeometry relative="1" as="geometry" />
        </mxCell>
        <mxCell id="ljQ7hY6K9yDuPbr-B0nX-57" style="edgeStyle=orthogonalEdgeStyle;curved=1;orthogonalLoop=1;jettySize=auto;html=1;exitX=1;exitY=0.25;exitDx=0;exitDy=0;entryX=0.5;entryY=0;entryDx=0;entryDy=0;" edge="1" parent="1" source="ljQ7hY6K9yDuPbr-B0nX-11" target="ljQ7hY6K9yDuPbr-B0nX-55">
          <mxGeometry relative="1" as="geometry" />
        </mxCell>
        <mxCell id="ljQ7hY6K9yDuPbr-B0nX-11" value="/image_raw" style="rounded=0;whiteSpace=wrap;html=1;" vertex="1" parent="1">
          <mxGeometry x="2080" y="2990" width="100" height="30" as="geometry" />
        </mxCell>
        <mxCell id="ljQ7hY6K9yDuPbr-B0nX-12" value="" style="swimlane;startSize=0;" vertex="1" parent="1">
          <mxGeometry x="2280" y="3120" width="190" height="90" as="geometry" />
        </mxCell>
        <mxCell id="ljQ7hY6K9yDuPbr-B0nX-14" value="/calibration_publisher" style="ellipse;whiteSpace=wrap;html=1;" vertex="1" parent="ljQ7hY6K9yDuPbr-B0nX-12">
          <mxGeometry x="20" y="40" width="150" height="30" as="geometry" />
        </mxCell>
        <mxCell id="ljQ7hY6K9yDuPbr-B0nX-13" value="calibration_publisher" style="text;html=1;align=center;verticalAlign=middle;resizable=0;points=[];autosize=1;strokeColor=none;" vertex="1" parent="ljQ7hY6K9yDuPbr-B0nX-12">
          <mxGeometry x="30" width="130" height="20" as="geometry" />
        </mxCell>
        <mxCell id="ljQ7hY6K9yDuPbr-B0nX-16" value="" style="swimlane;startSize=0;" vertex="1" parent="1">
          <mxGeometry x="2630" y="3150" width="190" height="90" as="geometry" />
        </mxCell>
        <mxCell id="ljQ7hY6K9yDuPbr-B0nX-18" value="camera" style="text;html=1;align=center;verticalAlign=middle;resizable=0;points=[];autosize=1;strokeColor=none;" vertex="1" parent="ljQ7hY6K9yDuPbr-B0nX-16">
          <mxGeometry x="65" width="60" height="20" as="geometry" />
        </mxCell>
        <mxCell id="ljQ7hY6K9yDuPbr-B0nX-35" value="&lt;span&gt;/camera/camera_info&lt;/span&gt;" style="whiteSpace=wrap;html=1;" vertex="1" parent="ljQ7hY6K9yDuPbr-B0nX-16">
          <mxGeometry x="30" y="40" width="140" height="30" as="geometry" />
        </mxCell>
        <mxCell id="ljQ7hY6K9yDuPbr-B0nX-19" style="edgeStyle=orthogonalEdgeStyle;curved=1;orthogonalLoop=1;jettySize=auto;html=1;exitX=1;exitY=0.5;exitDx=0;exitDy=0;entryX=0;entryY=0.25;entryDx=0;entryDy=0;" edge="1" parent="1" source="ljQ7hY6K9yDuPbr-B0nX-14" target="ljQ7hY6K9yDuPbr-B0nX-16">
          <mxGeometry relative="1" as="geometry" />
        </mxCell>
        <mxCell id="ljQ7hY6K9yDuPbr-B0nX-39" style="edgeStyle=orthogonalEdgeStyle;curved=1;orthogonalLoop=1;jettySize=auto;html=1;exitX=1;exitY=0.25;exitDx=0;exitDy=0;entryX=0;entryY=1;entryDx=0;entryDy=0;" edge="1" parent="1" source="ljQ7hY6K9yDuPbr-B0nX-20" target="ljQ7hY6K9yDuPbr-B0nX-29">
          <mxGeometry relative="1" as="geometry" />
        </mxCell>
        <mxCell id="ljQ7hY6K9yDuPbr-B0nX-79" style="edgeStyle=orthogonalEdgeStyle;curved=1;orthogonalLoop=1;jettySize=auto;html=1;exitX=0.5;exitY=1;exitDx=0;exitDy=0;" edge="1" parent="1" source="ljQ7hY6K9yDuPbr-B0nX-20" target="ljQ7hY6K9yDuPbr-B0nX-60">
          <mxGeometry relative="1" as="geometry">
            <Array as="points">
              <mxPoint x="2724.9999999999995" y="3410" />
              <mxPoint x="4034.9999999999995" y="3410" />
            </Array>
          </mxGeometry>
        </mxCell>
        <mxCell id="ljQ7hY6K9yDuPbr-B0nX-20" value="/projection_matrix" style="rounded=0;whiteSpace=wrap;html=1;" vertex="1" parent="1">
          <mxGeometry x="2642.5" y="3280" width="165" height="30" as="geometry" />
        </mxCell>
        <mxCell id="ljQ7hY6K9yDuPbr-B0nX-21" style="edgeStyle=orthogonalEdgeStyle;curved=1;orthogonalLoop=1;jettySize=auto;html=1;exitX=1;exitY=1;exitDx=0;exitDy=0;entryX=0;entryY=0.75;entryDx=0;entryDy=0;" edge="1" parent="1" source="ljQ7hY6K9yDuPbr-B0nX-14" target="ljQ7hY6K9yDuPbr-B0nX-20">
          <mxGeometry relative="1" as="geometry" />
        </mxCell>
        <mxCell id="ljQ7hY6K9yDuPbr-B0nX-28" value="" style="swimlane;startSize=0;" vertex="1" parent="1">
          <mxGeometry x="2879.9999999999995" y="3100" width="190" height="90" as="geometry" />
        </mxCell>
        <mxCell id="ljQ7hY6K9yDuPbr-B0nX-29" value="/points2image" style="ellipse;whiteSpace=wrap;html=1;" vertex="1" parent="ljQ7hY6K9yDuPbr-B0nX-28">
          <mxGeometry x="20" y="40" width="150" height="30" as="geometry" />
        </mxCell>
        <mxCell id="ljQ7hY6K9yDuPbr-B0nX-30" value="points2image" style="text;html=1;align=center;verticalAlign=middle;resizable=0;points=[];autosize=1;strokeColor=none;" vertex="1" parent="ljQ7hY6K9yDuPbr-B0nX-28">
          <mxGeometry x="50" width="90" height="20" as="geometry" />
        </mxCell>
        <mxCell id="ljQ7hY6K9yDuPbr-B0nX-52" style="edgeStyle=orthogonalEdgeStyle;curved=1;orthogonalLoop=1;jettySize=auto;html=1;exitX=1;exitY=0;exitDx=0;exitDy=0;entryX=0;entryY=1;entryDx=0;entryDy=0;" edge="1" parent="1" source="ljQ7hY6K9yDuPbr-B0nX-31" target="ljQ7hY6K9yDuPbr-B0nX-50">
          <mxGeometry relative="1" as="geometry" />
        </mxCell>
        <mxCell id="ljQ7hY6K9yDuPbr-B0nX-31" value="/points_image" style="rounded=0;whiteSpace=wrap;html=1;" vertex="1" parent="1">
          <mxGeometry x="3119.9999999999995" y="3120" width="100" height="30" as="geometry" />
        </mxCell>
        <mxCell id="ljQ7hY6K9yDuPbr-B0nX-32" value="" style="swimlane;startSize=0;" vertex="1" parent="1">
          <mxGeometry x="2899.9999999999995" y="3270" width="190" height="90" as="geometry" />
        </mxCell>
        <mxCell id="ljQ7hY6K9yDuPbr-B0nX-33" value="/relay_camera_info" style="ellipse;whiteSpace=wrap;html=1;" vertex="1" parent="ljQ7hY6K9yDuPbr-B0nX-32">
          <mxGeometry x="20" y="40" width="150" height="30" as="geometry" />
        </mxCell>
        <mxCell id="ljQ7hY6K9yDuPbr-B0nX-34" value="relay_camera_info" style="text;html=1;align=center;verticalAlign=middle;resizable=0;points=[];autosize=1;strokeColor=none;" vertex="1" parent="ljQ7hY6K9yDuPbr-B0nX-32">
          <mxGeometry x="40" width="110" height="20" as="geometry" />
        </mxCell>
        <mxCell id="ljQ7hY6K9yDuPbr-B0nX-36" style="edgeStyle=orthogonalEdgeStyle;curved=1;orthogonalLoop=1;jettySize=auto;html=1;exitX=1;exitY=0.25;exitDx=0;exitDy=0;entryX=0;entryY=0.5;entryDx=0;entryDy=0;" edge="1" parent="1" source="ljQ7hY6K9yDuPbr-B0nX-35" target="ljQ7hY6K9yDuPbr-B0nX-29">
          <mxGeometry relative="1" as="geometry" />
        </mxCell>
        <mxCell id="ljQ7hY6K9yDuPbr-B0nX-37" style="edgeStyle=orthogonalEdgeStyle;curved=1;orthogonalLoop=1;jettySize=auto;html=1;exitX=1;exitY=0.75;exitDx=0;exitDy=0;entryX=0;entryY=0.5;entryDx=0;entryDy=0;" edge="1" parent="1" source="ljQ7hY6K9yDuPbr-B0nX-35" target="ljQ7hY6K9yDuPbr-B0nX-33">
          <mxGeometry relative="1" as="geometry" />
        </mxCell>
        <mxCell id="ljQ7hY6K9yDuPbr-B0nX-38" style="edgeStyle=orthogonalEdgeStyle;curved=1;orthogonalLoop=1;jettySize=auto;html=1;exitX=1;exitY=0.5;exitDx=0;exitDy=0;" edge="1" parent="1" source="ljQ7hY6K9yDuPbr-B0nX-29" target="ljQ7hY6K9yDuPbr-B0nX-31">
          <mxGeometry relative="1" as="geometry" />
        </mxCell>
        <mxCell id="ljQ7hY6K9yDuPbr-B0nX-78" style="edgeStyle=orthogonalEdgeStyle;curved=1;orthogonalLoop=1;jettySize=auto;html=1;exitX=0.75;exitY=0;exitDx=0;exitDy=0;" edge="1" parent="1" source="ljQ7hY6K9yDuPbr-B0nX-41" target="ljQ7hY6K9yDuPbr-B0nX-60">
          <mxGeometry relative="1" as="geometry">
            <mxPoint x="4039.9999999999995" y="3010" as="targetPoint" />
          </mxGeometry>
        </mxCell>
        <mxCell id="ljQ7hY6K9yDuPbr-B0nX-41" value="/camera_info" style="rounded=0;whiteSpace=wrap;html=1;" vertex="1" parent="1">
          <mxGeometry x="3119.9999999999995" y="3310" width="100" height="30" as="geometry" />
        </mxCell>
        <mxCell id="ljQ7hY6K9yDuPbr-B0nX-42" style="edgeStyle=orthogonalEdgeStyle;curved=1;orthogonalLoop=1;jettySize=auto;html=1;exitX=1;exitY=0.5;exitDx=0;exitDy=0;" edge="1" parent="1" source="ljQ7hY6K9yDuPbr-B0nX-33" target="ljQ7hY6K9yDuPbr-B0nX-41">
          <mxGeometry relative="1" as="geometry" />
        </mxCell>
        <mxCell id="ljQ7hY6K9yDuPbr-B0nX-43" value="" style="swimlane;startSize=0;" vertex="1" parent="1">
          <mxGeometry x="3019.9999999999995" y="2900" width="1680" height="180" as="geometry" />
        </mxCell>
        <mxCell id="ljQ7hY6K9yDuPbr-B0nX-49" style="edgeStyle=orthogonalEdgeStyle;curved=1;orthogonalLoop=1;jettySize=auto;html=1;exitX=1;exitY=0.5;exitDx=0;exitDy=0;" edge="1" parent="ljQ7hY6K9yDuPbr-B0nX-43" source="ljQ7hY6K9yDuPbr-B0nX-45" target="ljQ7hY6K9yDuPbr-B0nX-48">
          <mxGeometry relative="1" as="geometry" />
        </mxCell>
        <mxCell id="ljQ7hY6K9yDuPbr-B0nX-45" value="/obj_car/dpm" style="ellipse;whiteSpace=wrap;html=1;" vertex="1" parent="ljQ7hY6K9yDuPbr-B0nX-43">
          <mxGeometry x="10" y="110" width="110" height="30" as="geometry" />
        </mxCell>
        <mxCell id="ljQ7hY6K9yDuPbr-B0nX-51" style="edgeStyle=orthogonalEdgeStyle;curved=1;orthogonalLoop=1;jettySize=auto;html=1;exitX=1;exitY=0.5;exitDx=0;exitDy=0;" edge="1" parent="ljQ7hY6K9yDuPbr-B0nX-43" source="ljQ7hY6K9yDuPbr-B0nX-48" target="ljQ7hY6K9yDuPbr-B0nX-50">
          <mxGeometry relative="1" as="geometry" />
        </mxCell>
        <mxCell id="ljQ7hY6K9yDuPbr-B0nX-48" value="/obj_car/image_obj" style="rounded=0;whiteSpace=wrap;html=1;" vertex="1" parent="ljQ7hY6K9yDuPbr-B0nX-43">
          <mxGeometry x="150" y="110" width="130" height="30" as="geometry" />
        </mxCell>
        <mxCell id="ljQ7hY6K9yDuPbr-B0nX-54" style="edgeStyle=orthogonalEdgeStyle;curved=1;orthogonalLoop=1;jettySize=auto;html=1;exitX=1;exitY=0.5;exitDx=0;exitDy=0;" edge="1" parent="ljQ7hY6K9yDuPbr-B0nX-43" source="ljQ7hY6K9yDuPbr-B0nX-50" target="ljQ7hY6K9yDuPbr-B0nX-53">
          <mxGeometry relative="1" as="geometry" />
        </mxCell>
        <mxCell id="ljQ7hY6K9yDuPbr-B0nX-50" value="/obj_car/ranging" style="ellipse;whiteSpace=wrap;html=1;" vertex="1" parent="ljQ7hY6K9yDuPbr-B0nX-43">
          <mxGeometry x="300" y="110" width="110" height="30" as="geometry" />
        </mxCell>
        <mxCell id="ljQ7hY6K9yDuPbr-B0nX-56" style="edgeStyle=orthogonalEdgeStyle;curved=1;orthogonalLoop=1;jettySize=auto;html=1;exitX=1;exitY=0.5;exitDx=0;exitDy=0;" edge="1" parent="ljQ7hY6K9yDuPbr-B0nX-43" source="ljQ7hY6K9yDuPbr-B0nX-53" target="ljQ7hY6K9yDuPbr-B0nX-55">
          <mxGeometry relative="1" as="geometry" />
        </mxCell>
        <mxCell id="ljQ7hY6K9yDuPbr-B0nX-53" value="/obj_car/image_obj_ranged" style="rounded=0;whiteSpace=wrap;html=1;" vertex="1" parent="ljQ7hY6K9yDuPbr-B0nX-43">
          <mxGeometry x="440" y="110" width="160" height="30" as="geometry" />
        </mxCell>
        <mxCell id="ljQ7hY6K9yDuPbr-B0nX-59" style="edgeStyle=orthogonalEdgeStyle;curved=1;orthogonalLoop=1;jettySize=auto;html=1;exitX=1;exitY=0.5;exitDx=0;exitDy=0;" edge="1" parent="ljQ7hY6K9yDuPbr-B0nX-43" source="ljQ7hY6K9yDuPbr-B0nX-55" target="ljQ7hY6K9yDuPbr-B0nX-58">
          <mxGeometry relative="1" as="geometry" />
        </mxCell>
        <mxCell id="ljQ7hY6K9yDuPbr-B0nX-55" value="/obj_car/tracking" style="ellipse;whiteSpace=wrap;html=1;" vertex="1" parent="ljQ7hY6K9yDuPbr-B0nX-43">
          <mxGeometry x="640" y="110" width="110" height="30" as="geometry" />
        </mxCell>
        <mxCell id="ljQ7hY6K9yDuPbr-B0nX-61" style="edgeStyle=orthogonalEdgeStyle;curved=1;orthogonalLoop=1;jettySize=auto;html=1;exitX=1;exitY=0.5;exitDx=0;exitDy=0;" edge="1" parent="ljQ7hY6K9yDuPbr-B0nX-43" source="ljQ7hY6K9yDuPbr-B0nX-58" target="ljQ7hY6K9yDuPbr-B0nX-60">
          <mxGeometry relative="1" as="geometry" />
        </mxCell>
        <mxCell id="ljQ7hY6K9yDuPbr-B0nX-58" value="/obj_car/image_obj_tracked" style="rounded=0;whiteSpace=wrap;html=1;" vertex="1" parent="ljQ7hY6K9yDuPbr-B0nX-43">
          <mxGeometry x="780" y="110" width="160" height="30" as="geometry" />
        </mxCell>
        <mxCell id="ljQ7hY6K9yDuPbr-B0nX-65" style="edgeStyle=orthogonalEdgeStyle;curved=1;orthogonalLoop=1;jettySize=auto;html=1;exitX=1;exitY=0;exitDx=0;exitDy=0;entryX=0;entryY=0.5;entryDx=0;entryDy=0;" edge="1" parent="ljQ7hY6K9yDuPbr-B0nX-43" source="ljQ7hY6K9yDuPbr-B0nX-60" target="ljQ7hY6K9yDuPbr-B0nX-62">
          <mxGeometry relative="1" as="geometry" />
        </mxCell>
        <mxCell id="ljQ7hY6K9yDuPbr-B0nX-66" style="edgeStyle=orthogonalEdgeStyle;curved=1;orthogonalLoop=1;jettySize=auto;html=1;exitX=1;exitY=1;exitDx=0;exitDy=0;entryX=0;entryY=0.5;entryDx=0;entryDy=0;" edge="1" parent="ljQ7hY6K9yDuPbr-B0nX-43" source="ljQ7hY6K9yDuPbr-B0nX-60" target="ljQ7hY6K9yDuPbr-B0nX-64">
          <mxGeometry relative="1" as="geometry" />
        </mxCell>
        <mxCell id="ljQ7hY6K9yDuPbr-B0nX-67" style="edgeStyle=orthogonalEdgeStyle;curved=1;orthogonalLoop=1;jettySize=auto;html=1;exitX=1;exitY=0.5;exitDx=0;exitDy=0;entryX=0;entryY=0.5;entryDx=0;entryDy=0;" edge="1" parent="ljQ7hY6K9yDuPbr-B0nX-43" source="ljQ7hY6K9yDuPbr-B0nX-60" target="ljQ7hY6K9yDuPbr-B0nX-63">
          <mxGeometry relative="1" as="geometry" />
        </mxCell>
        <mxCell id="ljQ7hY6K9yDuPbr-B0nX-60" value="/obj_car/reprojection" style="ellipse;whiteSpace=wrap;html=1;" vertex="1" parent="ljQ7hY6K9yDuPbr-B0nX-43">
          <mxGeometry x="950" y="75" width="130" height="30" as="geometry" />
        </mxCell>
        <mxCell id="ljQ7hY6K9yDuPbr-B0nX-71" style="edgeStyle=orthogonalEdgeStyle;curved=1;orthogonalLoop=1;jettySize=auto;html=1;exitX=1;exitY=0.5;exitDx=0;exitDy=0;" edge="1" parent="ljQ7hY6K9yDuPbr-B0nX-43" source="ljQ7hY6K9yDuPbr-B0nX-62" target="ljQ7hY6K9yDuPbr-B0nX-68">
          <mxGeometry relative="1" as="geometry" />
        </mxCell>
        <mxCell id="ljQ7hY6K9yDuPbr-B0nX-62" value="/obj_car/obj_label" style="rounded=0;whiteSpace=wrap;html=1;" vertex="1" parent="ljQ7hY6K9yDuPbr-B0nX-43">
          <mxGeometry x="1120" y="20" width="160" height="30" as="geometry" />
        </mxCell>
        <mxCell id="ljQ7hY6K9yDuPbr-B0nX-63" value="/obj_car/obj_label_bouding_box" style="rounded=0;whiteSpace=wrap;html=1;" vertex="1" parent="ljQ7hY6K9yDuPbr-B0nX-43">
          <mxGeometry x="1120" y="75" width="180" height="30" as="geometry" />
        </mxCell>
        <mxCell id="ljQ7hY6K9yDuPbr-B0nX-64" value="/obj_car/obj_label_marker" style="rounded=0;whiteSpace=wrap;html=1;" vertex="1" parent="ljQ7hY6K9yDuPbr-B0nX-43">
          <mxGeometry x="1120" y="130" width="160" height="30" as="geometry" />
        </mxCell>
        <mxCell id="ljQ7hY6K9yDuPbr-B0nX-72" style="edgeStyle=orthogonalEdgeStyle;curved=1;orthogonalLoop=1;jettySize=auto;html=1;exitX=1;exitY=0.5;exitDx=0;exitDy=0;" edge="1" parent="ljQ7hY6K9yDuPbr-B0nX-43" source="ljQ7hY6K9yDuPbr-B0nX-68" target="ljQ7hY6K9yDuPbr-B0nX-69">
          <mxGeometry relative="1" as="geometry" />
        </mxCell>
        <mxCell id="ljQ7hY6K9yDuPbr-B0nX-74" style="edgeStyle=orthogonalEdgeStyle;curved=1;orthogonalLoop=1;jettySize=auto;html=1;exitX=0.5;exitY=1;exitDx=0;exitDy=0;entryX=0;entryY=0.5;entryDx=0;entryDy=0;" edge="1" parent="ljQ7hY6K9yDuPbr-B0nX-43" source="ljQ7hY6K9yDuPbr-B0nX-68" target="ljQ7hY6K9yDuPbr-B0nX-70">
          <mxGeometry relative="1" as="geometry" />
        </mxCell>
        <mxCell id="ljQ7hY6K9yDuPbr-B0nX-68" value="/obj_car/fusion" style="ellipse;whiteSpace=wrap;html=1;" vertex="1" parent="ljQ7hY6K9yDuPbr-B0nX-43">
          <mxGeometry x="1340" y="20" width="130" height="30" as="geometry" />
        </mxCell>
        <mxCell id="ljQ7hY6K9yDuPbr-B0nX-69" value="/obj_car/obj_pose" style="rounded=0;whiteSpace=wrap;html=1;" vertex="1" parent="ljQ7hY6K9yDuPbr-B0nX-43">
          <mxGeometry x="1500" y="20" width="160" height="30" as="geometry" />
        </mxCell>
        <mxCell id="ljQ7hY6K9yDuPbr-B0nX-70" value="/obj_car/obj_pose_timestamp" style="rounded=0;whiteSpace=wrap;html=1;" vertex="1" parent="ljQ7hY6K9yDuPbr-B0nX-43">
          <mxGeometry x="1500" y="70" width="170" height="30" as="geometry" />
        </mxCell>
        <mxCell id="ljQ7hY6K9yDuPbr-B0nX-47" style="edgeStyle=orthogonalEdgeStyle;curved=1;orthogonalLoop=1;jettySize=auto;html=1;entryX=0.5;entryY=0;entryDx=0;entryDy=0;exitX=1;exitY=0.75;exitDx=0;exitDy=0;" edge="1" parent="1" source="ljQ7hY6K9yDuPbr-B0nX-46" target="ljQ7hY6K9yDuPbr-B0nX-45">
          <mxGeometry relative="1" as="geometry">
            <Array as="points">
              <mxPoint x="2999.9999999999995" y="2585" />
              <mxPoint x="2999.9999999999995" y="2750" />
              <mxPoint x="3084.9999999999995" y="2750" />
            </Array>
          </mxGeometry>
        </mxCell>
        <mxCell id="ljQ7hY6K9yDuPbr-B0nX-75" value="/cloud_clusters_class" style="rounded=0;whiteSpace=wrap;html=1;" vertex="1" parent="1">
          <mxGeometry x="4490" y="3110" width="160" height="30" as="geometry" />
        </mxCell>
        <mxCell id="ljQ7hY6K9yDuPbr-B0nX-76" style="edgeStyle=orthogonalEdgeStyle;curved=1;orthogonalLoop=1;jettySize=auto;html=1;exitX=0.5;exitY=1;exitDx=0;exitDy=0;entryX=0;entryY=0.75;entryDx=0;entryDy=0;" edge="1" parent="1" source="ljQ7hY6K9yDuPbr-B0nX-68" target="ljQ7hY6K9yDuPbr-B0nX-75">
          <mxGeometry relative="1" as="geometry" />
        </mxCell>
        <mxCell id="ljQ7hY6K9yDuPbr-B0nX-77" value="obj_car" style="text;html=1;align=center;verticalAlign=middle;resizable=0;points=[];autosize=1;strokeColor=none;" vertex="1" parent="1">
          <mxGeometry x="3834.9999999999995" y="2900" width="50" height="20" as="geometry" />
        </mxCell>
        <mxCell id="ljQ7hY6K9yDuPbr-B0nX-81" value="" style="swimlane;startSize=0;" vertex="1" parent="1">
          <mxGeometry x="3059.9999999999995" y="3510" width="260" height="90" as="geometry" />
        </mxCell>
        <mxCell id="Fh_mSE7WUpqC5ql87PSx-66" value="/euclidean_cluster" style="ellipse;whiteSpace=wrap;html=1;" parent="ljQ7hY6K9yDuPbr-B0nX-81" vertex="1">
          <mxGeometry x="25" y="40" width="210" height="40" as="geometry" />
        </mxCell>
        <mxCell id="ljQ7hY6K9yDuPbr-B0nX-82" value="euclidean_cluster" style="text;html=1;align=center;verticalAlign=middle;resizable=0;points=[];autosize=1;strokeColor=none;" vertex="1" parent="ljQ7hY6K9yDuPbr-B0nX-81">
          <mxGeometry x="75" width="110" height="20" as="geometry" />
        </mxCell>
        <mxCell id="ljQ7hY6K9yDuPbr-B0nX-86" style="edgeStyle=orthogonalEdgeStyle;curved=1;orthogonalLoop=1;jettySize=auto;html=1;exitX=0.75;exitY=0;exitDx=0;exitDy=0;entryX=0;entryY=1;entryDx=0;entryDy=0;" edge="1" parent="1" source="ljQ7hY6K9yDuPbr-B0nX-84" target="ljQ7hY6K9yDuPbr-B0nX-68">
          <mxGeometry relative="1" as="geometry" />
        </mxCell>
        <mxCell id="ljQ7hY6K9yDuPbr-B0nX-84" value="/cloud_clusters" style="rounded=0;whiteSpace=wrap;html=1;" vertex="1" parent="1">
          <mxGeometry x="3969.9999999999995" y="3470" width="100" height="30" as="geometry" />
        </mxCell>
        <mxCell id="ljQ7hY6K9yDuPbr-B0nX-85" style="edgeStyle=orthogonalEdgeStyle;curved=1;orthogonalLoop=1;jettySize=auto;html=1;exitX=1;exitY=0.5;exitDx=0;exitDy=0;entryX=0.25;entryY=1;entryDx=0;entryDy=0;" edge="1" parent="1" source="Fh_mSE7WUpqC5ql87PSx-66" target="ljQ7hY6K9yDuPbr-B0nX-84">
          <mxGeometry relative="1" as="geometry" />
        </mxCell>
      </root>
    </mxGraphModel>
  </diagram>
</mxfile>
